HIERARCHY
ROOT Hips
{
	OFFSET 0.000000 0.000000 0.000000
	CHANNELS 6 Xposition Yposition Zposition Zrotation Yrotation Xrotation 
	JOINT LHipJoint
	{
		OFFSET 0.000000 0.000000 0.000000
		CHANNELS 3 Zrotation Yrotation Xrotation
		JOINT LeftUpLeg
		{
			OFFSET 1.363060 -1.794630 0.839290
			CHANNELS 3 Zrotation Yrotation Xrotation
			JOINT LeftLeg
			{
				OFFSET 2.448110 -6.726130 0.000000
				CHANNELS 3 Zrotation Yrotation Xrotation
				JOINT LeftFoot
				{
					OFFSET 2.562200 -7.039590 0.000000
					CHANNELS 3 Zrotation Yrotation Xrotation
					JOINT LeftToeBase
					{
						OFFSET 0.157640 -0.433110 2.322550
						CHANNELS 3 Zrotation Yrotation Xrotation
						End Site
						{
							OFFSET 0.000000 0.000000 0.000000
						}
					}
				}
			}
		}
	}
	JOINT RHipJoint
	{
		OFFSET 0.000000 0.000000 0.000000
		CHANNELS 3 Zrotation Yrotation Xrotation
		JOINT RightUpLeg
		{
			OFFSET -1.305520 -1.794630 0.839290
			CHANNELS 3 Zrotation Yrotation Xrotation
			JOINT RightLeg
			{
				OFFSET -2.542530 -6.985550 0.000000
				CHANNELS 3 Zrotation Yrotation Xrotation
				JOINT RightFoot
				{
					OFFSET -2.568260 -7.056230 0.000000
					CHANNELS 3 Zrotation Yrotation Xrotation
					JOINT RightToeBase
					{
						OFFSET -0.164730 -0.452590 2.363150
						CHANNELS 3 Zrotation Yrotation Xrotation
						End Site
						{
							OFFSET 0.000000 0.000000 0.000000
						}
					}
				}
			}
		}
	}
}
MOTION
Frames: 16
Frame Time: 0.008333
-11.461889 16.927684 -2.096625 11.859649 83.781858 12.774701 -10.488654 1.388150 1.609115 -13.371365 10.622124 -29.103579 -1.998974 0.508138 21.376291 1.631788 10.371583 -2.463147 1.098399 0.000000 -14.136700 9.764442 -4.348002 -0.991153 -0.772877 -12.810642 12.245823 0.763439 -2.216595 23.355323 0.162438 4.084200 10.211201 1.061300 0.000000 -86.215500
-11.275011 16.934538 -2.104700 13.252355 83.829652 13.906561 -10.514155 1.446551 1.554226 -13.396200 10.750823 -28.478137 -1.959032 0.552358 22.139092 1.641622 10.459071 -2.765042 1.030100 0.000000 -14.027600 9.920153 -4.410016 -1.053396 -1.536976 -13.391331 11.383691 0.497095 -2.422194 25.842254 0.047824 4.206967 12.724118 1.341701 0.000000 -88.082700
-11.091109 16.940941 -2.112940 14.858857 83.908796 15.255068 -10.527111 1.497344 1.492696 -13.449786 10.863499 -27.787788 -1.931564 0.581661 22.805278 1.649075 10.505181 -3.215576 0.928600 0.000000 -14.013500 10.089500 -4.445619 -1.127313 -2.291704 -14.019460 10.441983 0.227881 -2.599513 28.386945 -0.121144 4.085544 15.332488 1.567700 -0.000000 -89.143200
-10.910407 16.946596 -2.121336 16.612545 84.013108 16.755666 -10.526517 1.541394 1.425427 -13.521686 10.954288 -27.034912 -1.914537 0.598072 23.379746 1.655792 10.519886 -3.795252 0.799000 -0.000000 -14.070300 10.268326 -4.450080 -1.212413 -3.014318 -14.668096 9.444683 -0.027921 -2.746028 30.958306 -0.335858 3.696763 17.917780 1.686899 0.000000 -89.191000
-10.732932 16.951484 -2.129792 18.412695 84.119492 18.316853 -10.511550 1.580297 1.354371 -13.605703 11.025577 -26.230803 -1.905843 0.602899 23.859329 1.664871 10.524607 -4.471283 0.650000 0.000001 -14.193100 10.452857 -4.422865 -1.300764 -3.675908 -15.284046 8.384394 -0.257732 -2.864840 33.554638 -0.583768 3.017180 20.336699 1.642000 -0.000001 -88.121800
-10.558543 16.955504 -2.138444 20.154849 84.230026 19.826599 -10.486135 1.617310 1.281337 -13.682535 11.073473 -25.374597 -1.902934 0.600713 24.257790 1.677262 10.525864 -5.217927 0.486500 -0.000000 -14.353600 10.632436 -4.364977 -1.399001 -4.260015 -15.870228 7.309389 -0.451095 -2.961267 36.114128 -0.844438 2.064752 22.420018 1.399400 0.000000 -86.021100
-10.387001 16.959077 -2.147202 21.704751 84.313557 21.161736 -10.453320 1.654672 1.209097 -13.747573 11.108671 -24.483026 -1.903998 0.592729 24.566357 1.696013 10.548627 -5.994818 0.317900 0.000000 -14.557600 10.801170 -4.283168 -1.495928 -4.738757 -16.369511 6.192878 -0.608916 -3.045787 38.644743 -1.102066 0.849103 24.017156 0.943600 -0.000001 -83.084700
-10.217883 16.962379 -2.156141 22.995150 84.375593 22.249669 -10.419927 1.694464 1.139677 -13.787011 11.130626 -23.560906 -1.906973 0.582747 24.799297 1.721062 10.596470 -6.778353 0.147800 0.000000 -14.772400 10.949829 -4.184245 -1.596860 -5.108386 -16.800304 5.060004 -0.735287 -3.126971 41.098045 -1.339573 -0.558683 25.011154 0.313500 -0.000000 -79.686100
-10.050935 16.966073 -2.165254 23.903455 84.389238 22.977375 -10.391022 1.738070 1.074751 -13.799463 11.156092 -22.625419 -1.910847 0.571134 24.945835 1.753611 10.685189 -7.534767 -0.017300 -0.000000 -15.009300 11.073888 -4.076493 -1.689081 -5.345050 -17.112133 3.878928 -0.840301 -3.212559 43.478368 -1.548036 -2.096801 25.328717 -0.431500 0.000000 -76.044200
-9.885712 16.970483 -2.174532 24.405610 84.361909 23.320073 -10.372148 1.785922 1.015386 -13.777510 11.189222 -21.687593 -1.914524 0.559827 25.018027 1.792034 10.809662 -8.248648 -0.175700 0.000001 -15.249800 11.169270 -3.965690 -1.773052 -5.447465 -17.319893 2.656293 -0.931523 -3.304868 45.747904 -1.720692 -3.665307 24.960022 -1.199300 -0.000000 -72.517600
-9.721989 16.976063 -2.183945 24.474291 84.289816 23.255034 -10.366389 1.838290 0.961928 -13.719801 11.241530 -20.761709 -1.917774 0.549077 25.017993 1.834663 10.964917 -8.905300 -0.324799 -0.000000 -15.496000 11.235433 -3.856095 -1.842343 -5.408070 -17.413034 1.380560 -1.014518 -3.402935 47.886988 -1.855543 -5.176901 23.938341 -1.902700 -0.000000 -69.283600
-9.559674 16.983140 -2.193351 24.141515 84.166465 22.814135 -10.372999 1.895221 0.912679 -13.631868 11.326393 -19.849368 -1.921007 0.537650 24.936639 1.879632 11.145026 -9.492649 -0.462500 0.000000 -15.758000 11.276345 -3.750294 -1.891020 -5.232868 -17.381173 0.044093 -1.090849 -3.504493 49.884414 -1.951841 -6.546802 22.318255 -2.464500 -0.000000 -66.199300
-9.398558 16.991837 -2.202734 23.456753 84.006413 22.048851 -10.391969 1.956380 0.867646 -13.511425 11.446604 -18.963014 -1.924643 0.526073 24.788792 1.923535 11.329117 -10.013019 -0.588500 0.000001 -16.031700 11.294065 -3.648015 -1.918777 -4.927973 -17.245710 -1.344571 -1.157785 -3.602782 51.702027 -2.012042 -7.718703 20.210369 -2.840400 0.000000 -63.417500
-9.238878 17.002148 -2.211917 22.530958 83.811183 21.062385 -10.418712 2.021020 0.822686 -13.367781 11.610722 -18.087617 -1.929519 0.512480 24.561495 1.963968 11.505855 -10.462134 -0.701100 0.000000 -16.329500 11.295668 -3.548196 -1.924809 -4.516610 -17.012489 -2.772082 -1.210459 -3.693535 53.319184 -2.039972 -8.656944 17.734405 -3.014800 -0.000000 -60.832400
-9.080465 17.013886 -2.220884 21.442734 83.598340 19.933638 -10.451082 2.088178 0.777718 -13.202542 11.814509 -17.227672 -1.936129 0.496789 24.266667 1.998169 11.656178 -10.847791 -0.800600 -0.000001 -16.649900 11.284170 -3.448956 -1.912070 -4.015897 -16.713887 -4.226094 -1.242763 -3.771312 54.710462 -2.040065 -9.348510 15.019935 -3.000800 -0.000000 -58.298599
-8.923711 17.026705 -2.229446 20.317477 83.378436 18.773757 -10.484844 2.156379 0.727762 -13.023444 12.058451 -16.355026 -1.944817 0.477596 23.892084 2.024080 11.769533 -11.169380 -0.885600 0.000000 -17.000500 11.264983 -3.347531 -1.885565 -3.457704 -16.371951 -5.676088 -1.250282 -3.833309 55.850044 -2.020700 -9.815621 12.228612 -2.841201 0.000000 -55.957400
